# xmcd CD database file
#
# Track frame offsets:
#	182
#	16740
#	29452
#	43362
#	57767
#	72377
#	86142
#	111162
#	129075
#	140762
#	154280
#
# Disc length: 2271 seconds
#
# Revision: 4
# Processed by: cddbd v1.5.2PL0 Copyright (c) Steve Scherf et al.
# Submitted via: CDex 1.51
#
DISCID=9908dd0b
DTITLE=Lou Rawls - At Last
DYEAR=1989
DGENRE=Vocal
TTITLE0=At Last
TTITLE1=Two Years of Torture
TTITLE2=Fine Brown Frame
TTITLE3=Good Intentions
TTITLE4=That's Where It's At
TTITLE5=If I Were A Magician
TTITLE6=You Can't Go Home
TTITLE7=Room With A View
TTITLE8=After the Lights Go Down Low
TTITLE9=She's No Lady
TTITLE10=Oh, What a Nite
EXTD=YEAR: 1989
EXTT0=
EXTT1=
EXTT2=
EXTT3=Lou Rawls
EXTT4=
EXTT5=
EXTT6=
EXTT7=
EXTT8=
EXTT9=Lou Rawls
EXTT10=
PLAYORDER=
